<mxfile host="app.diagrams.net" modified="2023-07-15T04:05:19.634Z" agent="Mozilla/5.0 (Windows NT 10.0; Win64; x64) AppleWebKit/537.36 (KHTML, like Gecko) Chrome/114.0.0.0 Safari/537.36" etag="4CtL7M39fAXj9dXUorxm" version="21.6.2" type="github">
  <diagram name="Official" id="VOQePEP4rb1BS9EbYT5j">
    <mxGraphModel dx="3185" dy="2437" grid="1" gridSize="10" guides="1" tooltips="1" connect="1" arrows="1" fold="1" page="1" pageScale="1" pageWidth="827" pageHeight="1169" math="0" shadow="0">
      <root>
        <mxCell id="ZhwHeU2DW-AlFwMiwrjJ-0" />
        <mxCell id="ZhwHeU2DW-AlFwMiwrjJ-1" parent="ZhwHeU2DW-AlFwMiwrjJ-0" />
        <mxCell id="ZhwHeU2DW-AlFwMiwrjJ-2" value="Teacher" style="rounded=0;whiteSpace=wrap;html=1;fillColor=#dae8fc;strokeColor=#6c8ebf;" parent="ZhwHeU2DW-AlFwMiwrjJ-1" vertex="1">
          <mxGeometry x="173" y="-920" width="120" height="60" as="geometry" />
        </mxCell>
        <mxCell id="ZhwHeU2DW-AlFwMiwrjJ-3" value="Student" style="rounded=0;whiteSpace=wrap;html=1;fillColor=#dae8fc;strokeColor=#6c8ebf;" parent="ZhwHeU2DW-AlFwMiwrjJ-1" vertex="1">
          <mxGeometry x="266.74" y="-185" width="120" height="60" as="geometry" />
        </mxCell>
        <mxCell id="ZhwHeU2DW-AlFwMiwrjJ-4" value="Class" style="rounded=0;whiteSpace=wrap;html=1;fillColor=#dae8fc;strokeColor=#6c8ebf;" parent="ZhwHeU2DW-AlFwMiwrjJ-1" vertex="1">
          <mxGeometry x="265.49" y="-520" width="120" height="60" as="geometry" />
        </mxCell>
        <mxCell id="ZhwHeU2DW-AlFwMiwrjJ-5" value="Employee" style="rounded=0;whiteSpace=wrap;html=1;fillColor=#dae8fc;strokeColor=#6c8ebf;" parent="ZhwHeU2DW-AlFwMiwrjJ-1" vertex="1">
          <mxGeometry x="173" y="-1120" width="120" height="60" as="geometry" />
        </mxCell>
        <mxCell id="ZhwHeU2DW-AlFwMiwrjJ-6" value="Supervisor" style="rounded=0;whiteSpace=wrap;html=1;fillColor=#dae8fc;strokeColor=#6c8ebf;" parent="ZhwHeU2DW-AlFwMiwrjJ-1" vertex="1">
          <mxGeometry x="389.75" y="-920" width="120" height="60" as="geometry" />
        </mxCell>
        <mxCell id="ZhwHeU2DW-AlFwMiwrjJ-7" value="Admin" style="rounded=0;whiteSpace=wrap;html=1;fillColor=#dae8fc;strokeColor=#6c8ebf;" parent="ZhwHeU2DW-AlFwMiwrjJ-1" vertex="1">
          <mxGeometry x="2.5" y="-920" width="120" height="60" as="geometry" />
        </mxCell>
        <mxCell id="ZhwHeU2DW-AlFwMiwrjJ-8" value="d" style="ellipse;whiteSpace=wrap;html=1;aspect=fixed;" parent="ZhwHeU2DW-AlFwMiwrjJ-1" vertex="1">
          <mxGeometry x="218" y="-1040" width="30" height="30" as="geometry" />
        </mxCell>
        <mxCell id="ZhwHeU2DW-AlFwMiwrjJ-9" value="" style="endArrow=none;html=1;rounded=0;entryX=0.5;entryY=1;entryDx=0;entryDy=0;exitX=0.5;exitY=0;exitDx=0;exitDy=0;shape=link;" parent="ZhwHeU2DW-AlFwMiwrjJ-1" source="ZhwHeU2DW-AlFwMiwrjJ-8" target="ZhwHeU2DW-AlFwMiwrjJ-5" edge="1">
          <mxGeometry width="50" height="50" relative="1" as="geometry">
            <mxPoint x="438" y="-960" as="sourcePoint" />
            <mxPoint x="488" y="-1010" as="targetPoint" />
          </mxGeometry>
        </mxCell>
        <mxCell id="ZhwHeU2DW-AlFwMiwrjJ-10" value="&lt;u&gt;ID&lt;/u&gt;" style="ellipse;whiteSpace=wrap;html=1;" parent="ZhwHeU2DW-AlFwMiwrjJ-1" vertex="1">
          <mxGeometry x="37.5" y="-990" width="85" height="50" as="geometry" />
        </mxCell>
        <mxCell id="ZhwHeU2DW-AlFwMiwrjJ-11" value="Name" style="ellipse;whiteSpace=wrap;html=1;" parent="ZhwHeU2DW-AlFwMiwrjJ-1" vertex="1">
          <mxGeometry x="-60" y="-1080" width="85" height="50" as="geometry" />
        </mxCell>
        <mxCell id="ZhwHeU2DW-AlFwMiwrjJ-12" value="Phone" style="ellipse;whiteSpace=wrap;html=1;" parent="ZhwHeU2DW-AlFwMiwrjJ-1" vertex="1">
          <mxGeometry x="-60" y="-1140" width="85" height="50" as="geometry" />
        </mxCell>
        <mxCell id="ZhwHeU2DW-AlFwMiwrjJ-13" value="Username" style="ellipse;whiteSpace=wrap;html=1;" parent="ZhwHeU2DW-AlFwMiwrjJ-1" vertex="1">
          <mxGeometry x="46.5" y="-1160" width="85" height="50" as="geometry" />
        </mxCell>
        <mxCell id="ZhwHeU2DW-AlFwMiwrjJ-14" value="Password" style="ellipse;whiteSpace=wrap;html=1;" parent="ZhwHeU2DW-AlFwMiwrjJ-1" vertex="1">
          <mxGeometry x="360" y="-1160" width="85" height="50" as="geometry" />
        </mxCell>
        <mxCell id="ZhwHeU2DW-AlFwMiwrjJ-15" value="Email" style="ellipse;whiteSpace=wrap;html=1;" parent="ZhwHeU2DW-AlFwMiwrjJ-1" vertex="1">
          <mxGeometry x="392.5" y="-1090" width="85" height="50" as="geometry" />
        </mxCell>
        <mxCell id="ZhwHeU2DW-AlFwMiwrjJ-16" value="Address" style="ellipse;whiteSpace=wrap;html=1;" parent="ZhwHeU2DW-AlFwMiwrjJ-1" vertex="1">
          <mxGeometry x="360" y="-1015" width="85" height="50" as="geometry" />
        </mxCell>
        <mxCell id="ZhwHeU2DW-AlFwMiwrjJ-17" value="" style="endArrow=none;html=1;rounded=0;" parent="ZhwHeU2DW-AlFwMiwrjJ-1" source="ZhwHeU2DW-AlFwMiwrjJ-5" target="ZhwHeU2DW-AlFwMiwrjJ-10" edge="1">
          <mxGeometry width="50" height="50" relative="1" as="geometry">
            <mxPoint x="150.5" y="-1020" as="sourcePoint" />
            <mxPoint x="200.5" y="-1070" as="targetPoint" />
          </mxGeometry>
        </mxCell>
        <mxCell id="ZhwHeU2DW-AlFwMiwrjJ-18" value="" style="endArrow=none;html=1;rounded=0;" parent="ZhwHeU2DW-AlFwMiwrjJ-1" source="ZhwHeU2DW-AlFwMiwrjJ-5" target="ZhwHeU2DW-AlFwMiwrjJ-11" edge="1">
          <mxGeometry width="50" height="50" relative="1" as="geometry">
            <mxPoint x="175.5" y="-1145" as="sourcePoint" />
            <mxPoint x="148.5" y="-1133" as="targetPoint" />
          </mxGeometry>
        </mxCell>
        <mxCell id="ZhwHeU2DW-AlFwMiwrjJ-19" value="" style="endArrow=none;html=1;rounded=0;" parent="ZhwHeU2DW-AlFwMiwrjJ-1" source="ZhwHeU2DW-AlFwMiwrjJ-5" target="ZhwHeU2DW-AlFwMiwrjJ-12" edge="1">
          <mxGeometry width="50" height="50" relative="1" as="geometry">
            <mxPoint x="203" y="-1120" as="sourcePoint" />
            <mxPoint x="125.5" y="-1175" as="targetPoint" />
          </mxGeometry>
        </mxCell>
        <mxCell id="ZhwHeU2DW-AlFwMiwrjJ-20" value="" style="endArrow=none;html=1;rounded=0;" parent="ZhwHeU2DW-AlFwMiwrjJ-1" source="ZhwHeU2DW-AlFwMiwrjJ-5" target="ZhwHeU2DW-AlFwMiwrjJ-13" edge="1">
          <mxGeometry width="50" height="50" relative="1" as="geometry">
            <mxPoint x="200.5" y="-1190" as="sourcePoint" />
            <mxPoint x="173.5" y="-1207" as="targetPoint" />
          </mxGeometry>
        </mxCell>
        <mxCell id="ZhwHeU2DW-AlFwMiwrjJ-21" value="" style="endArrow=none;html=1;rounded=0;" parent="ZhwHeU2DW-AlFwMiwrjJ-1" source="ZhwHeU2DW-AlFwMiwrjJ-5" target="ZhwHeU2DW-AlFwMiwrjJ-14" edge="1">
          <mxGeometry width="50" height="50" relative="1" as="geometry">
            <mxPoint x="235.5" y="-1190" as="sourcePoint" />
            <mxPoint x="235.5" y="-1230" as="targetPoint" />
          </mxGeometry>
        </mxCell>
        <mxCell id="ZhwHeU2DW-AlFwMiwrjJ-22" value="" style="endArrow=none;html=1;rounded=0;" parent="ZhwHeU2DW-AlFwMiwrjJ-1" source="ZhwHeU2DW-AlFwMiwrjJ-5" target="ZhwHeU2DW-AlFwMiwrjJ-15" edge="1">
          <mxGeometry width="50" height="50" relative="1" as="geometry">
            <mxPoint x="265.5" y="-1190" as="sourcePoint" />
            <mxPoint x="289.5" y="-1207" as="targetPoint" />
          </mxGeometry>
        </mxCell>
        <mxCell id="ZhwHeU2DW-AlFwMiwrjJ-23" value="" style="endArrow=none;html=1;rounded=0;entryX=0;entryY=0;entryDx=0;entryDy=0;exitX=0.824;exitY=1.004;exitDx=0;exitDy=0;exitPerimeter=0;" parent="ZhwHeU2DW-AlFwMiwrjJ-1" source="ZhwHeU2DW-AlFwMiwrjJ-5" target="ZhwHeU2DW-AlFwMiwrjJ-16" edge="1">
          <mxGeometry width="50" height="50" relative="1" as="geometry">
            <mxPoint x="295.5" y="-1175" as="sourcePoint" />
            <mxPoint x="335.5" y="-1175" as="targetPoint" />
          </mxGeometry>
        </mxCell>
        <mxCell id="ZhwHeU2DW-AlFwMiwrjJ-24" value="In class" style="rhombus;whiteSpace=wrap;html=1;fillColor=#fad7ac;strokeColor=#b46504;" parent="ZhwHeU2DW-AlFwMiwrjJ-1" vertex="1">
          <mxGeometry x="270.99" y="-320" width="110" height="50" as="geometry" />
        </mxCell>
        <mxCell id="ZhwHeU2DW-AlFwMiwrjJ-25" value="&lt;u&gt;Name&lt;/u&gt;" style="ellipse;whiteSpace=wrap;html=1;" parent="ZhwHeU2DW-AlFwMiwrjJ-1" vertex="1">
          <mxGeometry x="526.4300000000001" y="-571.5" width="85" height="50" as="geometry" />
        </mxCell>
        <mxCell id="ZhwHeU2DW-AlFwMiwrjJ-26" value="Name" style="ellipse;whiteSpace=wrap;html=1;" parent="ZhwHeU2DW-AlFwMiwrjJ-1" vertex="1">
          <mxGeometry x="185.99" y="-75" width="85" height="50" as="geometry" />
        </mxCell>
        <mxCell id="ZhwHeU2DW-AlFwMiwrjJ-27" value="&lt;u&gt;ID&lt;/u&gt;" style="ellipse;whiteSpace=wrap;html=1;" parent="ZhwHeU2DW-AlFwMiwrjJ-1" vertex="1">
          <mxGeometry x="282.99" y="-65" width="85" height="50" as="geometry" />
        </mxCell>
        <mxCell id="ZhwHeU2DW-AlFwMiwrjJ-28" value="Phone" style="ellipse;whiteSpace=wrap;html=1;" parent="ZhwHeU2DW-AlFwMiwrjJ-1" vertex="1">
          <mxGeometry x="385.49" y="-65" width="85" height="50" as="geometry" />
        </mxCell>
        <mxCell id="ZhwHeU2DW-AlFwMiwrjJ-29" value="Email" style="ellipse;whiteSpace=wrap;html=1;" parent="ZhwHeU2DW-AlFwMiwrjJ-1" vertex="1">
          <mxGeometry x="110" y="-105" width="85" height="50" as="geometry" />
        </mxCell>
        <mxCell id="ZhwHeU2DW-AlFwMiwrjJ-30" value="Address" style="ellipse;whiteSpace=wrap;html=1;" parent="ZhwHeU2DW-AlFwMiwrjJ-1" vertex="1">
          <mxGeometry x="478.49" y="-115" width="85" height="50" as="geometry" />
        </mxCell>
        <mxCell id="ZhwHeU2DW-AlFwMiwrjJ-31" value="Teacher responsible" style="rhombus;whiteSpace=wrap;html=1;fillColor=#fad7ac;strokeColor=#b46504;" parent="ZhwHeU2DW-AlFwMiwrjJ-1" vertex="1">
          <mxGeometry y="-720" width="150" height="50" as="geometry" />
        </mxCell>
        <mxCell id="ZhwHeU2DW-AlFwMiwrjJ-32" value="" style="endArrow=none;html=1;rounded=0;" parent="ZhwHeU2DW-AlFwMiwrjJ-1" source="ZhwHeU2DW-AlFwMiwrjJ-25" target="ZhwHeU2DW-AlFwMiwrjJ-4" edge="1">
          <mxGeometry width="50" height="50" relative="1" as="geometry">
            <mxPoint x="246.49" y="-480" as="sourcePoint" />
            <mxPoint x="280.49" y="-480" as="targetPoint" />
          </mxGeometry>
        </mxCell>
        <mxCell id="ZhwHeU2DW-AlFwMiwrjJ-33" value="" style="endArrow=none;html=1;rounded=0;entryX=0;entryY=0.75;entryDx=0;entryDy=0;" parent="ZhwHeU2DW-AlFwMiwrjJ-1" source="ZhwHeU2DW-AlFwMiwrjJ-29" target="ZhwHeU2DW-AlFwMiwrjJ-3" edge="1">
          <mxGeometry width="50" height="50" relative="1" as="geometry">
            <mxPoint x="170.49" y="-80.00000000000045" as="sourcePoint" />
            <mxPoint x="321.74" y="-245" as="targetPoint" />
          </mxGeometry>
        </mxCell>
        <mxCell id="ZhwHeU2DW-AlFwMiwrjJ-34" value="" style="endArrow=none;html=1;rounded=0;exitX=1;exitY=0.75;exitDx=0;exitDy=0;entryX=0;entryY=0.5;entryDx=0;entryDy=0;" parent="ZhwHeU2DW-AlFwMiwrjJ-1" source="ZhwHeU2DW-AlFwMiwrjJ-3" target="ZhwHeU2DW-AlFwMiwrjJ-30" edge="1">
          <mxGeometry width="50" height="50" relative="1" as="geometry">
            <mxPoint x="271.74" y="-195" as="sourcePoint" />
            <mxPoint x="321.74" y="-245" as="targetPoint" />
          </mxGeometry>
        </mxCell>
        <mxCell id="ZhwHeU2DW-AlFwMiwrjJ-35" value="" style="endArrow=none;html=1;rounded=0;exitX=1;exitY=0;exitDx=0;exitDy=0;entryX=0.25;entryY=1;entryDx=0;entryDy=0;" parent="ZhwHeU2DW-AlFwMiwrjJ-1" source="ZhwHeU2DW-AlFwMiwrjJ-26" target="ZhwHeU2DW-AlFwMiwrjJ-3" edge="1">
          <mxGeometry width="50" height="50" relative="1" as="geometry">
            <mxPoint x="271.74" y="-195" as="sourcePoint" />
            <mxPoint x="321.74" y="-245" as="targetPoint" />
          </mxGeometry>
        </mxCell>
        <mxCell id="ZhwHeU2DW-AlFwMiwrjJ-36" value="" style="endArrow=none;html=1;rounded=0;exitX=0.5;exitY=0;exitDx=0;exitDy=0;entryX=0.5;entryY=1;entryDx=0;entryDy=0;" parent="ZhwHeU2DW-AlFwMiwrjJ-1" source="ZhwHeU2DW-AlFwMiwrjJ-27" target="ZhwHeU2DW-AlFwMiwrjJ-3" edge="1">
          <mxGeometry width="50" height="50" relative="1" as="geometry">
            <mxPoint x="264.74" y="-98" as="sourcePoint" />
            <mxPoint x="276.74" y="-115" as="targetPoint" />
          </mxGeometry>
        </mxCell>
        <mxCell id="ZhwHeU2DW-AlFwMiwrjJ-37" value="" style="endArrow=none;html=1;rounded=0;exitX=0;exitY=0;exitDx=0;exitDy=0;entryX=0.75;entryY=1;entryDx=0;entryDy=0;" parent="ZhwHeU2DW-AlFwMiwrjJ-1" source="ZhwHeU2DW-AlFwMiwrjJ-28" target="ZhwHeU2DW-AlFwMiwrjJ-3" edge="1">
          <mxGeometry width="50" height="50" relative="1" as="geometry">
            <mxPoint x="264.74" y="-98" as="sourcePoint" />
            <mxPoint x="276.74" y="-115" as="targetPoint" />
          </mxGeometry>
        </mxCell>
        <mxCell id="ZhwHeU2DW-AlFwMiwrjJ-38" value="1" style="endArrow=none;html=1;rounded=0;" parent="ZhwHeU2DW-AlFwMiwrjJ-1" source="ZhwHeU2DW-AlFwMiwrjJ-31" target="ZhwHeU2DW-AlFwMiwrjJ-2" edge="1">
          <mxGeometry x="-0.7372" y="15" width="50" height="50" relative="1" as="geometry">
            <mxPoint x="105" y="-510" as="sourcePoint" />
            <mxPoint x="155" y="-560" as="targetPoint" />
            <mxPoint as="offset" />
          </mxGeometry>
        </mxCell>
        <mxCell id="ZhwHeU2DW-AlFwMiwrjJ-40" value="" style="endArrow=none;html=1;rounded=0;entryX=0;entryY=0.5;entryDx=0;entryDy=0;startArrow=none;exitX=1;exitY=0.5;exitDx=0;exitDy=0;exitPerimeter=0;" parent="ZhwHeU2DW-AlFwMiwrjJ-1" source="ZhwHeU2DW-AlFwMiwrjJ-47" target="ZhwHeU2DW-AlFwMiwrjJ-8" edge="1">
          <mxGeometry width="50" height="50" relative="1" as="geometry">
            <mxPoint x="160" y="-970" as="sourcePoint" />
            <mxPoint x="367.5" y="-900" as="targetPoint" />
          </mxGeometry>
        </mxCell>
        <mxCell id="ZhwHeU2DW-AlFwMiwrjJ-41" value="" style="endArrow=none;html=1;rounded=0;exitX=1;exitY=0.5;exitDx=0;exitDy=0;entryX=0.5;entryY=1;entryDx=0;entryDy=0;startArrow=none;exitPerimeter=0;" parent="ZhwHeU2DW-AlFwMiwrjJ-1" source="ZhwHeU2DW-AlFwMiwrjJ-49" target="ZhwHeU2DW-AlFwMiwrjJ-8" edge="1">
          <mxGeometry width="50" height="50" relative="1" as="geometry">
            <mxPoint x="97.5" y="-940" as="sourcePoint" />
            <mxPoint x="232.5" y="-1015" as="targetPoint" />
          </mxGeometry>
        </mxCell>
        <mxCell id="ZhwHeU2DW-AlFwMiwrjJ-42" value="" style="endArrow=none;html=1;rounded=0;entryX=1;entryY=0.5;entryDx=0;entryDy=0;exitX=1;exitY=0.5;exitDx=0;exitDy=0;startArrow=none;exitPerimeter=0;" parent="ZhwHeU2DW-AlFwMiwrjJ-1" source="ZhwHeU2DW-AlFwMiwrjJ-51" target="ZhwHeU2DW-AlFwMiwrjJ-8" edge="1">
          <mxGeometry width="50" height="50" relative="1" as="geometry">
            <mxPoint x="387.5" y="-920" as="sourcePoint" />
            <mxPoint x="437.5" y="-970" as="targetPoint" />
          </mxGeometry>
        </mxCell>
        <mxCell id="ZhwHeU2DW-AlFwMiwrjJ-43" value="" style="endArrow=none;html=1;rounded=0;entryX=0.5;entryY=1;entryDx=0;entryDy=0;exitX=0.5;exitY=0;exitDx=0;exitDy=0;" parent="ZhwHeU2DW-AlFwMiwrjJ-1" source="ZhwHeU2DW-AlFwMiwrjJ-3" target="ZhwHeU2DW-AlFwMiwrjJ-24" edge="1">
          <mxGeometry width="50" height="50" relative="1" as="geometry">
            <mxPoint x="310.49" y="-290" as="sourcePoint" />
            <mxPoint x="320.49" y="-320" as="targetPoint" />
          </mxGeometry>
        </mxCell>
        <mxCell id="ZhwHeU2DW-AlFwMiwrjJ-44" value="N" style="edgeLabel;html=1;align=center;verticalAlign=middle;resizable=0;points=[];" parent="ZhwHeU2DW-AlFwMiwrjJ-43" connectable="0" vertex="1">
          <mxGeometry x="0.3124" y="2" relative="1" as="geometry">
            <mxPoint x="17" y="-89" as="offset" />
          </mxGeometry>
        </mxCell>
        <mxCell id="ZhwHeU2DW-AlFwMiwrjJ-45" value="N" style="edgeLabel;html=1;align=center;verticalAlign=middle;resizable=0;points=[];" parent="ZhwHeU2DW-AlFwMiwrjJ-43" connectable="0" vertex="1">
          <mxGeometry x="0.2658" y="-3" relative="1" as="geometry">
            <mxPoint x="11" y="-22" as="offset" />
          </mxGeometry>
        </mxCell>
        <mxCell id="ZhwHeU2DW-AlFwMiwrjJ-46" value="" style="endArrow=none;html=1;rounded=0;exitX=1;exitY=0;exitDx=0;exitDy=0;entryX=1;entryY=0.5;entryDx=0;entryDy=0;entryPerimeter=0;" parent="ZhwHeU2DW-AlFwMiwrjJ-1" source="ZhwHeU2DW-AlFwMiwrjJ-7" target="ZhwHeU2DW-AlFwMiwrjJ-47" edge="1">
          <mxGeometry width="50" height="50" relative="1" as="geometry">
            <mxPoint x="87.5" y="-950" as="sourcePoint" />
            <mxPoint x="160" y="-970" as="targetPoint" />
          </mxGeometry>
        </mxCell>
        <mxCell id="ZhwHeU2DW-AlFwMiwrjJ-47" value="" style="shape=requiredInterface;html=1;verticalLabelPosition=bottom;sketch=0;rotation=120;" parent="ZhwHeU2DW-AlFwMiwrjJ-1" vertex="1">
          <mxGeometry x="154" y="-975" width="10" height="20" as="geometry" />
        </mxCell>
        <mxCell id="ZhwHeU2DW-AlFwMiwrjJ-48" value="" style="endArrow=none;html=1;rounded=0;exitX=0.5;exitY=0;exitDx=0;exitDy=0;entryX=1;entryY=0.5;entryDx=0;entryDy=0;entryPerimeter=0;" parent="ZhwHeU2DW-AlFwMiwrjJ-1" source="ZhwHeU2DW-AlFwMiwrjJ-2" target="ZhwHeU2DW-AlFwMiwrjJ-49" edge="1">
          <mxGeometry width="50" height="50" relative="1" as="geometry">
            <mxPoint x="232.5" y="-950" as="sourcePoint" />
            <mxPoint x="233.5" y="-1010" as="targetPoint" />
          </mxGeometry>
        </mxCell>
        <mxCell id="ZhwHeU2DW-AlFwMiwrjJ-49" value="" style="shape=requiredInterface;html=1;verticalLabelPosition=bottom;sketch=0;rotation=90;" parent="ZhwHeU2DW-AlFwMiwrjJ-1" vertex="1">
          <mxGeometry x="227.5" y="-975" width="10" height="20" as="geometry" />
        </mxCell>
        <mxCell id="ZhwHeU2DW-AlFwMiwrjJ-50" value="" style="endArrow=none;html=1;rounded=0;entryX=1;entryY=0.5;entryDx=0;entryDy=0;exitX=0;exitY=0;exitDx=0;exitDy=0;" parent="ZhwHeU2DW-AlFwMiwrjJ-1" source="ZhwHeU2DW-AlFwMiwrjJ-6" target="ZhwHeU2DW-AlFwMiwrjJ-51" edge="1">
          <mxGeometry width="50" height="50" relative="1" as="geometry">
            <mxPoint x="382.5" y="-950" as="sourcePoint" />
            <mxPoint x="248.5" y="-1025" as="targetPoint" />
          </mxGeometry>
        </mxCell>
        <mxCell id="ZhwHeU2DW-AlFwMiwrjJ-51" value="" style="shape=requiredInterface;html=1;verticalLabelPosition=bottom;sketch=0;rotation=30;" parent="ZhwHeU2DW-AlFwMiwrjJ-1" vertex="1">
          <mxGeometry x="313" y="-980" width="10" height="20" as="geometry" />
        </mxCell>
        <mxCell id="ZhwHeU2DW-AlFwMiwrjJ-52" value="Classroom" style="rounded=0;whiteSpace=wrap;html=1;fillColor=#dae8fc;strokeColor=#6C8EBF;" parent="ZhwHeU2DW-AlFwMiwrjJ-1" vertex="1">
          <mxGeometry x="-530" y="-605" width="120" height="60" as="geometry" />
        </mxCell>
        <mxCell id="ZhwHeU2DW-AlFwMiwrjJ-53" value="&lt;u&gt;ID&lt;/u&gt;" style="ellipse;whiteSpace=wrap;html=1;" parent="ZhwHeU2DW-AlFwMiwrjJ-1" vertex="1">
          <mxGeometry x="-495" y="-680" width="85" height="50" as="geometry" />
        </mxCell>
        <mxCell id="ZhwHeU2DW-AlFwMiwrjJ-54" value="" style="endArrow=none;html=1;rounded=0;" parent="ZhwHeU2DW-AlFwMiwrjJ-1" source="ZhwHeU2DW-AlFwMiwrjJ-53" target="ZhwHeU2DW-AlFwMiwrjJ-52" edge="1">
          <mxGeometry width="50" height="50" relative="1" as="geometry">
            <mxPoint x="-13" y="-400" as="sourcePoint" />
            <mxPoint x="37" y="-450" as="targetPoint" />
          </mxGeometry>
        </mxCell>
        <mxCell id="ZhwHeU2DW-AlFwMiwrjJ-55" value="" style="endArrow=none;html=1;rounded=0;" parent="ZhwHeU2DW-AlFwMiwrjJ-1" source="ZhwHeU2DW-AlFwMiwrjJ-73" target="ZhwHeU2DW-AlFwMiwrjJ-135" edge="1">
          <mxGeometry width="50" height="50" relative="1" as="geometry">
            <mxPoint x="-270" y="-370" as="sourcePoint" />
            <mxPoint x="-540" y="-235" as="targetPoint" />
          </mxGeometry>
        </mxCell>
        <mxCell id="ZhwHeU2DW-AlFwMiwrjJ-56" value="&lt;span style=&quot;font-weight: normal;&quot;&gt;End-day&lt;/span&gt;" style="ellipse;whiteSpace=wrap;html=1;" parent="ZhwHeU2DW-AlFwMiwrjJ-1" vertex="1">
          <mxGeometry x="416" y="-635" width="67.5" height="35" as="geometry" />
        </mxCell>
        <mxCell id="ZhwHeU2DW-AlFwMiwrjJ-57" value="" style="endArrow=none;html=1;rounded=0;" parent="ZhwHeU2DW-AlFwMiwrjJ-1" source="ZhwHeU2DW-AlFwMiwrjJ-70" target="ZhwHeU2DW-AlFwMiwrjJ-69" edge="1">
          <mxGeometry width="50" height="50" relative="1" as="geometry">
            <mxPoint x="99.99742047232417" y="-587.0076704437047" as="sourcePoint" />
            <mxPoint x="275.49" y="-510" as="targetPoint" />
          </mxGeometry>
        </mxCell>
        <mxCell id="ZhwHeU2DW-AlFwMiwrjJ-58" value="" style="endArrow=none;html=1;rounded=0;" parent="ZhwHeU2DW-AlFwMiwrjJ-1" source="ZhwHeU2DW-AlFwMiwrjJ-56" target="ZhwHeU2DW-AlFwMiwrjJ-69" edge="1">
          <mxGeometry width="50" height="50" relative="1" as="geometry">
            <mxPoint x="416.49" y="-527" as="sourcePoint" />
            <mxPoint x="395.49" y="-510" as="targetPoint" />
          </mxGeometry>
        </mxCell>
        <mxCell id="ZhwHeU2DW-AlFwMiwrjJ-59" value="Birthday" style="ellipse;whiteSpace=wrap;html=1;" parent="ZhwHeU2DW-AlFwMiwrjJ-1" vertex="1">
          <mxGeometry x="477.5" y="-1130" width="85" height="50" as="geometry" />
        </mxCell>
        <mxCell id="ZhwHeU2DW-AlFwMiwrjJ-60" value="Birthplace" style="ellipse;whiteSpace=wrap;html=1;" parent="ZhwHeU2DW-AlFwMiwrjJ-1" vertex="1">
          <mxGeometry x="478.49" y="-1030" width="85" height="50" as="geometry" />
        </mxCell>
        <mxCell id="ZhwHeU2DW-AlFwMiwrjJ-61" value="" style="endArrow=none;html=1;rounded=0;" parent="ZhwHeU2DW-AlFwMiwrjJ-1" source="ZhwHeU2DW-AlFwMiwrjJ-5" target="ZhwHeU2DW-AlFwMiwrjJ-60" edge="1">
          <mxGeometry width="50" height="50" relative="1" as="geometry">
            <mxPoint x="303.5" y="-1141" as="sourcePoint" />
            <mxPoint x="352.5" y="-1125" as="targetPoint" />
          </mxGeometry>
        </mxCell>
        <mxCell id="ZhwHeU2DW-AlFwMiwrjJ-62" value="" style="endArrow=none;html=1;rounded=0;" parent="ZhwHeU2DW-AlFwMiwrjJ-1" source="ZhwHeU2DW-AlFwMiwrjJ-5" target="ZhwHeU2DW-AlFwMiwrjJ-59" edge="1">
          <mxGeometry width="50" height="50" relative="1" as="geometry">
            <mxPoint x="302.5" y="-1168" as="sourcePoint" />
            <mxPoint x="362.5" y="-1195" as="targetPoint" />
          </mxGeometry>
        </mxCell>
        <mxCell id="ZhwHeU2DW-AlFwMiwrjJ-63" value="Birthday" style="ellipse;whiteSpace=wrap;html=1;" parent="ZhwHeU2DW-AlFwMiwrjJ-1" vertex="1">
          <mxGeometry x="112.99000000000001" y="-165" width="85" height="50" as="geometry" />
        </mxCell>
        <mxCell id="ZhwHeU2DW-AlFwMiwrjJ-64" value="Birthplace" style="ellipse;whiteSpace=wrap;html=1;" parent="ZhwHeU2DW-AlFwMiwrjJ-1" vertex="1">
          <mxGeometry x="478.49" y="-180" width="85" height="50" as="geometry" />
        </mxCell>
        <mxCell id="ZhwHeU2DW-AlFwMiwrjJ-65" value="" style="endArrow=none;html=1;rounded=0;entryX=0;entryY=0.5;entryDx=0;entryDy=0;exitX=0.976;exitY=0.632;exitDx=0;exitDy=0;exitPerimeter=0;" parent="ZhwHeU2DW-AlFwMiwrjJ-1" source="ZhwHeU2DW-AlFwMiwrjJ-63" target="ZhwHeU2DW-AlFwMiwrjJ-3" edge="1">
          <mxGeometry width="50" height="50" relative="1" as="geometry">
            <mxPoint x="200.49" y="-145" as="sourcePoint" />
            <mxPoint x="276.49" y="-130" as="targetPoint" />
          </mxGeometry>
        </mxCell>
        <mxCell id="ZhwHeU2DW-AlFwMiwrjJ-66" value="" style="endArrow=none;html=1;rounded=0;exitX=1;exitY=0.5;exitDx=0;exitDy=0;entryX=0;entryY=0.5;entryDx=0;entryDy=0;" parent="ZhwHeU2DW-AlFwMiwrjJ-1" source="ZhwHeU2DW-AlFwMiwrjJ-3" target="ZhwHeU2DW-AlFwMiwrjJ-64" edge="1">
          <mxGeometry width="50" height="50" relative="1" as="geometry">
            <mxPoint x="396.49" y="-130" as="sourcePoint" />
            <mxPoint x="480.49" y="-90" as="targetPoint" />
          </mxGeometry>
        </mxCell>
        <mxCell id="ZhwHeU2DW-AlFwMiwrjJ-69" value="Period" style="ellipse;whiteSpace=wrap;html=1;" parent="ZhwHeU2DW-AlFwMiwrjJ-1" vertex="1">
          <mxGeometry x="407.25" y="-580" width="85" height="50" as="geometry" />
        </mxCell>
        <mxCell id="ZhwHeU2DW-AlFwMiwrjJ-70" value="Start-day" style="ellipse;whiteSpace=wrap;html=1;" parent="ZhwHeU2DW-AlFwMiwrjJ-1" vertex="1">
          <mxGeometry x="500.24" y="-610" width="67.5" height="35" as="geometry" />
        </mxCell>
        <mxCell id="ZhwHeU2DW-AlFwMiwrjJ-71" value="" style="endArrow=none;html=1;rounded=0;" parent="ZhwHeU2DW-AlFwMiwrjJ-1" source="ZhwHeU2DW-AlFwMiwrjJ-4" target="ZhwHeU2DW-AlFwMiwrjJ-69" edge="1">
          <mxGeometry width="50" height="50" relative="1" as="geometry">
            <mxPoint x="372.49" y="-527" as="sourcePoint" />
            <mxPoint x="365.49" y="-510" as="targetPoint" />
          </mxGeometry>
        </mxCell>
        <mxCell id="ZhwHeU2DW-AlFwMiwrjJ-73" value="Session" style="shape=ext;margin=3;double=1;whiteSpace=wrap;html=1;align=center;fillColor=#DAE8FC;strokeColor=#6C8EBF;" parent="ZhwHeU2DW-AlFwMiwrjJ-1" vertex="1">
          <mxGeometry x="-330" y="-400" width="100" height="40" as="geometry" />
        </mxCell>
        <mxCell id="ZhwHeU2DW-AlFwMiwrjJ-74" value="N" style="endArrow=none;html=1;rounded=0;shape=link;" parent="ZhwHeU2DW-AlFwMiwrjJ-1" source="ZhwHeU2DW-AlFwMiwrjJ-73" target="01Y2CtogWcS1jGO3ZOfH-6" edge="1">
          <mxGeometry x="0.8181" y="14" width="50" height="50" relative="1" as="geometry">
            <mxPoint x="-220" y="-415" as="sourcePoint" />
            <mxPoint x="25.724043715847074" y="-423.98907103825104" as="targetPoint" />
            <mxPoint as="offset" />
          </mxGeometry>
        </mxCell>
        <mxCell id="ZhwHeU2DW-AlFwMiwrjJ-75" value="" style="endArrow=none;html=1;rounded=0;" parent="ZhwHeU2DW-AlFwMiwrjJ-1" source="01Y2CtogWcS1jGO3ZOfH-6" target="ZhwHeU2DW-AlFwMiwrjJ-4" edge="1">
          <mxGeometry width="50" height="50" relative="1" as="geometry">
            <mxPoint x="103.88413805482196" y="-438.46175542962646" as="sourcePoint" />
            <mxPoint x="518.49" y="-720" as="targetPoint" />
          </mxGeometry>
        </mxCell>
        <mxCell id="ZhwHeU2DW-AlFwMiwrjJ-76" value="1" style="edgeLabel;html=1;align=center;verticalAlign=middle;resizable=0;points=[];" parent="ZhwHeU2DW-AlFwMiwrjJ-75" connectable="0" vertex="1">
          <mxGeometry x="-0.5819" y="1" relative="1" as="geometry">
            <mxPoint x="-13" y="-8" as="offset" />
          </mxGeometry>
        </mxCell>
        <mxCell id="ZhwHeU2DW-AlFwMiwrjJ-77" value="&lt;span style=&quot;border-bottom: 1px dotted&quot;&gt;Number&lt;/span&gt;" style="ellipse;whiteSpace=wrap;html=1;align=center;" parent="ZhwHeU2DW-AlFwMiwrjJ-1" vertex="1">
          <mxGeometry x="-406.25" y="-210" width="80" height="40" as="geometry" />
        </mxCell>
        <mxCell id="ZhwHeU2DW-AlFwMiwrjJ-78" value="" style="endArrow=none;html=1;rounded=0;" parent="ZhwHeU2DW-AlFwMiwrjJ-1" source="ZhwHeU2DW-AlFwMiwrjJ-77" target="ZhwHeU2DW-AlFwMiwrjJ-73" edge="1">
          <mxGeometry width="50" height="50" relative="1" as="geometry">
            <mxPoint x="-246" y="-520" as="sourcePoint" />
            <mxPoint x="-189" y="-495" as="targetPoint" />
          </mxGeometry>
        </mxCell>
        <mxCell id="ZhwHeU2DW-AlFwMiwrjJ-79" value="" style="endArrow=none;html=1;rounded=0;" parent="ZhwHeU2DW-AlFwMiwrjJ-1" source="ZhwHeU2DW-AlFwMiwrjJ-3" target="ZhwHeU2DW-AlFwMiwrjJ-85" edge="1">
          <mxGeometry width="50" height="50" relative="1" as="geometry">
            <mxPoint x="336.49" y="-230" as="sourcePoint" />
            <mxPoint x="336.49" y="-260" as="targetPoint" />
          </mxGeometry>
        </mxCell>
        <mxCell id="ZhwHeU2DW-AlFwMiwrjJ-80" value="N" style="edgeLabel;html=1;align=center;verticalAlign=middle;resizable=0;points=[];" parent="ZhwHeU2DW-AlFwMiwrjJ-79" connectable="0" vertex="1">
          <mxGeometry x="0.2658" y="-3" relative="1" as="geometry">
            <mxPoint x="63" y="-25" as="offset" />
          </mxGeometry>
        </mxCell>
        <mxCell id="ZhwHeU2DW-AlFwMiwrjJ-81" value="Status" style="ellipse;whiteSpace=wrap;html=1;" parent="ZhwHeU2DW-AlFwMiwrjJ-1" vertex="1">
          <mxGeometry x="645.49" y="-435" width="85" height="50" as="geometry" />
        </mxCell>
        <mxCell id="ZhwHeU2DW-AlFwMiwrjJ-82" value="Note" style="ellipse;whiteSpace=wrap;html=1;" parent="ZhwHeU2DW-AlFwMiwrjJ-1" vertex="1">
          <mxGeometry x="645.49" y="-350" width="85" height="50" as="geometry" />
        </mxCell>
        <mxCell id="ZhwHeU2DW-AlFwMiwrjJ-83" value="" style="endArrow=none;html=1;rounded=0;" parent="ZhwHeU2DW-AlFwMiwrjJ-1" source="ZhwHeU2DW-AlFwMiwrjJ-81" target="ZhwHeU2DW-AlFwMiwrjJ-85" edge="1">
          <mxGeometry width="50" height="50" relative="1" as="geometry">
            <mxPoint x="275.49" y="-495" as="sourcePoint" />
            <mxPoint x="199.49" y="-500" as="targetPoint" />
          </mxGeometry>
        </mxCell>
        <mxCell id="ZhwHeU2DW-AlFwMiwrjJ-84" value="" style="endArrow=none;html=1;rounded=0;" parent="ZhwHeU2DW-AlFwMiwrjJ-1" source="ZhwHeU2DW-AlFwMiwrjJ-82" target="ZhwHeU2DW-AlFwMiwrjJ-85" edge="1">
          <mxGeometry width="50" height="50" relative="1" as="geometry">
            <mxPoint x="695.49" y="-345" as="sourcePoint" />
            <mxPoint x="641.49" y="-378" as="targetPoint" />
          </mxGeometry>
        </mxCell>
        <mxCell id="ZhwHeU2DW-AlFwMiwrjJ-85" value="Student attendance" style="rhombus;whiteSpace=wrap;html=1;fillColor=#fad7ac;strokeColor=#b46504;" parent="ZhwHeU2DW-AlFwMiwrjJ-1" vertex="1">
          <mxGeometry x="500.24" y="-395" width="130" height="50" as="geometry" />
        </mxCell>
        <mxCell id="ZhwHeU2DW-AlFwMiwrjJ-88" value="Status" style="ellipse;whiteSpace=wrap;html=1;" parent="ZhwHeU2DW-AlFwMiwrjJ-1" vertex="1">
          <mxGeometry x="414" y="-515" width="85" height="50" as="geometry" />
        </mxCell>
        <mxCell id="ZhwHeU2DW-AlFwMiwrjJ-89" value="" style="endArrow=none;html=1;rounded=0;" parent="ZhwHeU2DW-AlFwMiwrjJ-1" source="ZhwHeU2DW-AlFwMiwrjJ-88" target="ZhwHeU2DW-AlFwMiwrjJ-4" edge="1">
          <mxGeometry width="50" height="50" relative="1" as="geometry">
            <mxPoint x="280.49" y="-547" as="sourcePoint" />
            <mxPoint x="297.49" y="-509" as="targetPoint" />
          </mxGeometry>
        </mxCell>
        <mxCell id="ZhwHeU2DW-AlFwMiwrjJ-90" value="Need to check if the student belongs to the session&#39;s class in this table" style="text;html=1;strokeColor=none;fillColor=none;align=center;verticalAlign=middle;whiteSpace=wrap;rounded=0;" parent="ZhwHeU2DW-AlFwMiwrjJ-1" vertex="1">
          <mxGeometry x="509.75" y="-462.5" width="122.61" height="45" as="geometry" />
        </mxCell>
        <mxCell id="ZhwHeU2DW-AlFwMiwrjJ-91" value="Need to check if `Date` is in the class&#39;s period time" style="text;html=1;strokeColor=none;fillColor=none;align=center;verticalAlign=middle;whiteSpace=wrap;rounded=0;" parent="ZhwHeU2DW-AlFwMiwrjJ-1" vertex="1">
          <mxGeometry x="-326.25" y="-155" width="120" height="40" as="geometry" />
        </mxCell>
        <mxCell id="ZhwHeU2DW-AlFwMiwrjJ-100" value="Status" style="ellipse;whiteSpace=wrap;html=1;" parent="ZhwHeU2DW-AlFwMiwrjJ-1" vertex="1">
          <mxGeometry x="645.49" y="-435" width="85" height="50" as="geometry" />
        </mxCell>
        <mxCell id="ZhwHeU2DW-AlFwMiwrjJ-107" value="Max seats" style="ellipse;whiteSpace=wrap;html=1;" parent="ZhwHeU2DW-AlFwMiwrjJ-1" vertex="1">
          <mxGeometry x="-600" y="-670" width="85" height="50" as="geometry" />
        </mxCell>
        <mxCell id="ZhwHeU2DW-AlFwMiwrjJ-108" value="" style="endArrow=none;html=1;rounded=0;" parent="ZhwHeU2DW-AlFwMiwrjJ-1" source="ZhwHeU2DW-AlFwMiwrjJ-107" target="ZhwHeU2DW-AlFwMiwrjJ-52" edge="1">
          <mxGeometry width="50" height="50" relative="1" as="geometry">
            <mxPoint x="-434" y="-660" as="sourcePoint" />
            <mxPoint x="-452" y="-595" as="targetPoint" />
          </mxGeometry>
        </mxCell>
        <mxCell id="ZhwHeU2DW-AlFwMiwrjJ-111" value="Max students" style="ellipse;whiteSpace=wrap;html=1;" parent="ZhwHeU2DW-AlFwMiwrjJ-1" vertex="1">
          <mxGeometry x="390" y="-445" width="102.25" height="50" as="geometry" />
        </mxCell>
        <mxCell id="ZhwHeU2DW-AlFwMiwrjJ-112" value="" style="endArrow=none;html=1;rounded=0;" parent="ZhwHeU2DW-AlFwMiwrjJ-1" source="ZhwHeU2DW-AlFwMiwrjJ-111" target="ZhwHeU2DW-AlFwMiwrjJ-4" edge="1">
          <mxGeometry width="50" height="50" relative="1" as="geometry">
            <mxPoint x="435" y="-546" as="sourcePoint" />
            <mxPoint x="380" y="-510" as="targetPoint" />
          </mxGeometry>
        </mxCell>
        <mxCell id="ZhwHeU2DW-AlFwMiwrjJ-113" value="Status" style="ellipse;whiteSpace=wrap;html=1;align=center;" parent="ZhwHeU2DW-AlFwMiwrjJ-1" vertex="1">
          <mxGeometry x="-260" y="-283" width="80" height="40" as="geometry" />
        </mxCell>
        <mxCell id="ZhwHeU2DW-AlFwMiwrjJ-114" value="" style="endArrow=none;html=1;rounded=0;" parent="ZhwHeU2DW-AlFwMiwrjJ-1" source="ZhwHeU2DW-AlFwMiwrjJ-113" target="ZhwHeU2DW-AlFwMiwrjJ-73" edge="1">
          <mxGeometry width="50" height="50" relative="1" as="geometry">
            <mxPoint x="-355" y="-428" as="sourcePoint" />
            <mxPoint x="-299" y="-390" as="targetPoint" />
          </mxGeometry>
        </mxCell>
        <mxCell id="ZhwHeU2DW-AlFwMiwrjJ-115" value="Make up for" style="rhombus;whiteSpace=wrap;html=1;fillColor=#fad7ac;strokeColor=#b46504;" parent="ZhwHeU2DW-AlFwMiwrjJ-1" vertex="1">
          <mxGeometry x="-570" y="-190" width="130" height="50" as="geometry" />
        </mxCell>
        <mxCell id="ZhwHeU2DW-AlFwMiwrjJ-116" value="1" style="endArrow=none;html=1;rounded=0;entryX=0;entryY=0;entryDx=0;entryDy=0;" parent="ZhwHeU2DW-AlFwMiwrjJ-1" source="ZhwHeU2DW-AlFwMiwrjJ-73" target="ZhwHeU2DW-AlFwMiwrjJ-115" edge="1">
          <mxGeometry x="0.9477" y="-10" width="50" height="50" relative="1" as="geometry">
            <mxPoint x="-298" y="-400" as="sourcePoint" />
            <mxPoint x="-100" y="-570" as="targetPoint" />
            <mxPoint as="offset" />
          </mxGeometry>
        </mxCell>
        <mxCell id="ZhwHeU2DW-AlFwMiwrjJ-117" value="" style="endArrow=none;html=1;rounded=0;entryX=0.82;entryY=0.266;entryDx=0;entryDy=0;entryPerimeter=0;" parent="ZhwHeU2DW-AlFwMiwrjJ-1" source="ZhwHeU2DW-AlFwMiwrjJ-73" target="ZhwHeU2DW-AlFwMiwrjJ-115" edge="1">
          <mxGeometry width="50" height="50" relative="1" as="geometry">
            <mxPoint x="-277" y="-390" as="sourcePoint" />
            <mxPoint x="-335" y="-554" as="targetPoint" />
          </mxGeometry>
        </mxCell>
        <mxCell id="ZhwHeU2DW-AlFwMiwrjJ-118" value="1" style="edgeLabel;html=1;align=center;verticalAlign=middle;resizable=0;points=[];" parent="ZhwHeU2DW-AlFwMiwrjJ-117" connectable="0" vertex="1">
          <mxGeometry x="0.2458" y="-3" relative="1" as="geometry">
            <mxPoint x="-47" y="68" as="offset" />
          </mxGeometry>
        </mxCell>
        <mxCell id="ZhwHeU2DW-AlFwMiwrjJ-126" value="Timetable" style="rounded=0;whiteSpace=wrap;html=1;fillColor=#dae8fc;strokeColor=#6c8ebf;" parent="ZhwHeU2DW-AlFwMiwrjJ-1" vertex="1">
          <mxGeometry x="-780" y="-460" width="120" height="60" as="geometry" />
        </mxCell>
        <mxCell id="ZhwHeU2DW-AlFwMiwrjJ-127" value="Start-hour" style="ellipse;whiteSpace=wrap;html=1;" parent="ZhwHeU2DW-AlFwMiwrjJ-1" vertex="1">
          <mxGeometry x="-695" y="-635" width="85" height="50" as="geometry" />
        </mxCell>
        <mxCell id="ZhwHeU2DW-AlFwMiwrjJ-128" value="" style="endArrow=none;html=1;rounded=0;" parent="ZhwHeU2DW-AlFwMiwrjJ-1" source="ZhwHeU2DW-AlFwMiwrjJ-132" target="ZhwHeU2DW-AlFwMiwrjJ-127" edge="1">
          <mxGeometry width="50" height="50" relative="1" as="geometry">
            <mxPoint x="-980" y="-179.5" as="sourcePoint" />
            <mxPoint x="-1124" y="-227.5" as="targetPoint" />
          </mxGeometry>
        </mxCell>
        <mxCell id="ZhwHeU2DW-AlFwMiwrjJ-129" value="End-hour" style="ellipse;whiteSpace=wrap;html=1;" parent="ZhwHeU2DW-AlFwMiwrjJ-1" vertex="1">
          <mxGeometry x="-780" y="-660" width="85" height="50" as="geometry" />
        </mxCell>
        <mxCell id="ZhwHeU2DW-AlFwMiwrjJ-130" value="" style="endArrow=none;html=1;rounded=0;" parent="ZhwHeU2DW-AlFwMiwrjJ-1" source="ZhwHeU2DW-AlFwMiwrjJ-132" target="ZhwHeU2DW-AlFwMiwrjJ-129" edge="1">
          <mxGeometry width="50" height="50" relative="1" as="geometry">
            <mxPoint x="-958" y="-191.5" as="sourcePoint" />
            <mxPoint x="-1249" y="-197.5" as="targetPoint" />
          </mxGeometry>
        </mxCell>
        <mxCell id="ZhwHeU2DW-AlFwMiwrjJ-132" value="Period" style="ellipse;whiteSpace=wrap;html=1;" parent="ZhwHeU2DW-AlFwMiwrjJ-1" vertex="1">
          <mxGeometry x="-770" y="-571.5" width="85" height="50" as="geometry" />
        </mxCell>
        <mxCell id="ZhwHeU2DW-AlFwMiwrjJ-133" value="" style="endArrow=none;html=1;rounded=0;" parent="ZhwHeU2DW-AlFwMiwrjJ-1" source="ZhwHeU2DW-AlFwMiwrjJ-132" target="ZhwHeU2DW-AlFwMiwrjJ-126" edge="1">
          <mxGeometry width="50" height="50" relative="1" as="geometry">
            <mxPoint x="-950" y="-162" as="sourcePoint" />
            <mxPoint x="-1011" y="-183" as="targetPoint" />
          </mxGeometry>
        </mxCell>
        <mxCell id="ZhwHeU2DW-AlFwMiwrjJ-135" value="Date" style="ellipse;whiteSpace=wrap;html=1;align=center;" parent="ZhwHeU2DW-AlFwMiwrjJ-1" vertex="1">
          <mxGeometry x="-310" y="-205" width="80" height="40" as="geometry" />
        </mxCell>
        <mxCell id="ZhwHeU2DW-AlFwMiwrjJ-140" value="" style="endArrow=none;html=1;rounded=0;" parent="ZhwHeU2DW-AlFwMiwrjJ-1" source="ZhwHeU2DW-AlFwMiwrjJ-4" target="ZhwHeU2DW-AlFwMiwrjJ-24" edge="1">
          <mxGeometry width="50" height="50" relative="1" as="geometry">
            <mxPoint x="335" y="-510" as="sourcePoint" />
            <mxPoint x="335" y="-690" as="targetPoint" />
          </mxGeometry>
        </mxCell>
        <mxCell id="_Ey7u8BmT_JralRfA2Q6-3" value="Supervisor responsible" style="rhombus;whiteSpace=wrap;html=1;fillColor=#fad7ac;strokeColor=#b46504;" parent="ZhwHeU2DW-AlFwMiwrjJ-1" vertex="1">
          <mxGeometry x="381.5" y="-770" width="150" height="50" as="geometry" />
        </mxCell>
        <mxCell id="_Ey7u8BmT_JralRfA2Q6-4" value="1" style="endArrow=none;html=1;rounded=0;" parent="ZhwHeU2DW-AlFwMiwrjJ-1" source="_Ey7u8BmT_JralRfA2Q6-3" target="ZhwHeU2DW-AlFwMiwrjJ-6" edge="1">
          <mxGeometry x="-0.7372" y="15" width="50" height="50" relative="1" as="geometry">
            <mxPoint x="164" y="-722" as="sourcePoint" />
            <mxPoint x="230" y="-880" as="targetPoint" />
            <mxPoint as="offset" />
          </mxGeometry>
        </mxCell>
        <mxCell id="_Ey7u8BmT_JralRfA2Q6-8" value="Status" style="ellipse;whiteSpace=wrap;html=1;" parent="ZhwHeU2DW-AlFwMiwrjJ-1" vertex="1">
          <mxGeometry x="-190" y="-825" width="85" height="50" as="geometry" />
        </mxCell>
        <mxCell id="_Ey7u8BmT_JralRfA2Q6-9" value="Note" style="ellipse;whiteSpace=wrap;html=1;" parent="ZhwHeU2DW-AlFwMiwrjJ-1" vertex="1">
          <mxGeometry x="-100" y="-850" width="85" height="34" as="geometry" />
        </mxCell>
        <mxCell id="_Ey7u8BmT_JralRfA2Q6-10" value="Teacher attendance" style="ellipse;whiteSpace=wrap;html=1;" parent="ZhwHeU2DW-AlFwMiwrjJ-1" vertex="1">
          <mxGeometry x="-66" y="-775" width="91" height="40" as="geometry" />
        </mxCell>
        <mxCell id="_Ey7u8BmT_JralRfA2Q6-12" value="" style="endArrow=none;html=1;rounded=0;" parent="ZhwHeU2DW-AlFwMiwrjJ-1" source="ZhwHeU2DW-AlFwMiwrjJ-31" target="_Ey7u8BmT_JralRfA2Q6-10" edge="1">
          <mxGeometry width="50" height="50" relative="1" as="geometry">
            <mxPoint x="372" y="-708" as="sourcePoint" />
            <mxPoint x="458" y="-739" as="targetPoint" />
          </mxGeometry>
        </mxCell>
        <mxCell id="_Ey7u8BmT_JralRfA2Q6-13" value="" style="endArrow=none;html=1;rounded=0;" parent="ZhwHeU2DW-AlFwMiwrjJ-1" source="_Ey7u8BmT_JralRfA2Q6-10" target="_Ey7u8BmT_JralRfA2Q6-8" edge="1">
          <mxGeometry width="50" height="50" relative="1" as="geometry">
            <mxPoint x="388" y="-687" as="sourcePoint" />
            <mxPoint x="427" y="-682" as="targetPoint" />
          </mxGeometry>
        </mxCell>
        <mxCell id="_Ey7u8BmT_JralRfA2Q6-14" value="" style="endArrow=none;html=1;rounded=0;" parent="ZhwHeU2DW-AlFwMiwrjJ-1" source="_Ey7u8BmT_JralRfA2Q6-10" target="_Ey7u8BmT_JralRfA2Q6-9" edge="1">
          <mxGeometry width="50" height="50" relative="1" as="geometry">
            <mxPoint x="502" y="-685" as="sourcePoint" />
            <mxPoint x="559" y="-700" as="targetPoint" />
          </mxGeometry>
        </mxCell>
        <mxCell id="01Y2CtogWcS1jGO3ZOfH-0" value="" style="endArrow=none;html=1;rounded=0;" parent="ZhwHeU2DW-AlFwMiwrjJ-1" source="ZhwHeU2DW-AlFwMiwrjJ-5" target="01Y2CtogWcS1jGO3ZOfH-1" edge="1">
          <mxGeometry width="50" height="50" relative="1" as="geometry">
            <mxPoint x="173" y="-1185" as="sourcePoint" />
            <mxPoint x="100" y="-1110" as="targetPoint" />
          </mxGeometry>
        </mxCell>
        <mxCell id="01Y2CtogWcS1jGO3ZOfH-1" value="SSN" style="ellipse;whiteSpace=wrap;html=1;" parent="ZhwHeU2DW-AlFwMiwrjJ-1" vertex="1">
          <mxGeometry x="25" y="-1050" width="85" height="50" as="geometry" />
        </mxCell>
        <mxCell id="01Y2CtogWcS1jGO3ZOfH-6" value="Have" style="shape=rhombus;double=1;perimeter=rhombusPerimeter;whiteSpace=wrap;html=1;align=center;fillColor=#FAD7AC;strokeColor=#B46504;" parent="ZhwHeU2DW-AlFwMiwrjJ-1" vertex="1">
          <mxGeometry x="2.5" y="-470" width="120" height="60" as="geometry" />
        </mxCell>
        <mxCell id="tKnq8dVepf-utCEXewpT-0" value="Note" style="ellipse;whiteSpace=wrap;html=1;" parent="ZhwHeU2DW-AlFwMiwrjJ-1" vertex="1">
          <mxGeometry x="611.43" y="-754" width="85" height="34" as="geometry" />
        </mxCell>
        <mxCell id="UCymDucayZrGFGS8X2yc-0" value="" style="endArrow=none;html=1;rounded=0;" parent="ZhwHeU2DW-AlFwMiwrjJ-1" source="_Ey7u8BmT_JralRfA2Q6-3" target="tKnq8dVepf-utCEXewpT-0" edge="1">
          <mxGeometry width="50" height="50" relative="1" as="geometry">
            <mxPoint x="-271" y="-350" as="sourcePoint" />
            <mxPoint x="-279" y="-175" as="targetPoint" />
          </mxGeometry>
        </mxCell>
        <mxCell id="UCymDucayZrGFGS8X2yc-8" value="In" style="rhombus;whiteSpace=wrap;html=1;fillColor=#fad7ac;strokeColor=#b46504;" parent="ZhwHeU2DW-AlFwMiwrjJ-1" vertex="1">
          <mxGeometry x="-440" y="-515" width="130" height="50" as="geometry" />
        </mxCell>
        <mxCell id="UCymDucayZrGFGS8X2yc-10" value="In" style="rhombus;whiteSpace=wrap;html=1;fillColor=#fad7ac;strokeColor=#b46504;" parent="ZhwHeU2DW-AlFwMiwrjJ-1" vertex="1">
          <mxGeometry x="-550" y="-435" width="130" height="50" as="geometry" />
        </mxCell>
        <mxCell id="UCymDucayZrGFGS8X2yc-11" value="N" style="endArrow=none;html=1;rounded=0;shape=link;" parent="ZhwHeU2DW-AlFwMiwrjJ-1" source="ZhwHeU2DW-AlFwMiwrjJ-73" target="UCymDucayZrGFGS8X2yc-8" edge="1">
          <mxGeometry x="0.8181" y="14" width="50" height="50" relative="1" as="geometry">
            <mxPoint x="-426" y="-535" as="sourcePoint" />
            <mxPoint x="-385" y="-497" as="targetPoint" />
            <mxPoint as="offset" />
          </mxGeometry>
        </mxCell>
        <mxCell id="UCymDucayZrGFGS8X2yc-12" value="N" style="endArrow=none;html=1;rounded=0;shape=link;" parent="ZhwHeU2DW-AlFwMiwrjJ-1" source="ZhwHeU2DW-AlFwMiwrjJ-73" target="UCymDucayZrGFGS8X2yc-10" edge="1">
          <mxGeometry x="0.8134" y="14" width="50" height="50" relative="1" as="geometry">
            <mxPoint x="-287" y="-390" as="sourcePoint" />
            <mxPoint x="-349" y="-461" as="targetPoint" />
            <mxPoint as="offset" />
          </mxGeometry>
        </mxCell>
        <mxCell id="UCymDucayZrGFGS8X2yc-13" value="" style="endArrow=none;html=1;rounded=0;" parent="ZhwHeU2DW-AlFwMiwrjJ-1" source="UCymDucayZrGFGS8X2yc-10" target="ZhwHeU2DW-AlFwMiwrjJ-126" edge="1">
          <mxGeometry width="50" height="50" relative="1" as="geometry">
            <mxPoint x="116" y="-438" as="sourcePoint" />
            <mxPoint x="275" y="-469" as="targetPoint" />
          </mxGeometry>
        </mxCell>
        <mxCell id="UCymDucayZrGFGS8X2yc-14" value="1" style="edgeLabel;html=1;align=center;verticalAlign=middle;resizable=0;points=[];" parent="UCymDucayZrGFGS8X2yc-13" connectable="0" vertex="1">
          <mxGeometry x="-0.5819" y="1" relative="1" as="geometry">
            <mxPoint x="-6" y="-14" as="offset" />
          </mxGeometry>
        </mxCell>
        <mxCell id="UCymDucayZrGFGS8X2yc-15" value="" style="endArrow=none;html=1;rounded=0;" parent="ZhwHeU2DW-AlFwMiwrjJ-1" source="UCymDucayZrGFGS8X2yc-8" target="ZhwHeU2DW-AlFwMiwrjJ-52" edge="1">
          <mxGeometry width="50" height="50" relative="1" as="geometry">
            <mxPoint x="-385" y="-497" as="sourcePoint" />
            <mxPoint x="-426" y="-535" as="targetPoint" />
          </mxGeometry>
        </mxCell>
        <mxCell id="UCymDucayZrGFGS8X2yc-16" value="1" style="edgeLabel;html=1;align=center;verticalAlign=middle;resizable=0;points=[];" parent="UCymDucayZrGFGS8X2yc-15" connectable="0" vertex="1">
          <mxGeometry x="-0.5819" y="1" relative="1" as="geometry">
            <mxPoint x="-26" y="-5" as="offset" />
          </mxGeometry>
        </mxCell>
        <mxCell id="UCymDucayZrGFGS8X2yc-17" value="N" style="endArrow=none;html=1;rounded=0;" parent="ZhwHeU2DW-AlFwMiwrjJ-1" source="UCymDucayZrGFGS8X2yc-18" target="ZhwHeU2DW-AlFwMiwrjJ-2" edge="1">
          <mxGeometry x="-0.9293" y="24" width="50" height="50" relative="1" as="geometry">
            <mxPoint x="270" y="-670" as="sourcePoint" />
            <mxPoint x="222" y="-880" as="targetPoint" />
            <mxPoint y="-1" as="offset" />
          </mxGeometry>
        </mxCell>
        <mxCell id="UCymDucayZrGFGS8X2yc-18" value="Teach" style="rhombus;whiteSpace=wrap;html=1;fillColor=#fad7ac;strokeColor=#b46504;" parent="ZhwHeU2DW-AlFwMiwrjJ-1" vertex="1">
          <mxGeometry x="173" y="-780" width="150" height="50" as="geometry" />
        </mxCell>
        <mxCell id="UCymDucayZrGFGS8X2yc-19" value="N" style="endArrow=none;html=1;rounded=0;" parent="ZhwHeU2DW-AlFwMiwrjJ-1" source="UCymDucayZrGFGS8X2yc-18" target="ZhwHeU2DW-AlFwMiwrjJ-4" edge="1">
          <mxGeometry x="-0.9293" y="24" width="50" height="50" relative="1" as="geometry">
            <mxPoint x="256" y="-769" as="sourcePoint" />
            <mxPoint x="245" y="-880" as="targetPoint" />
            <mxPoint y="-1" as="offset" />
          </mxGeometry>
        </mxCell>
        <mxCell id="UCymDucayZrGFGS8X2yc-27" value="&lt;u&gt;ID&lt;/u&gt;" style="ellipse;whiteSpace=wrap;html=1;" parent="ZhwHeU2DW-AlFwMiwrjJ-1" vertex="1">
          <mxGeometry x="-780" y="-360" width="85" height="50" as="geometry" />
        </mxCell>
        <mxCell id="UCymDucayZrGFGS8X2yc-29" value="" style="endArrow=none;html=1;rounded=0;" parent="ZhwHeU2DW-AlFwMiwrjJ-1" source="UCymDucayZrGFGS8X2yc-27" target="ZhwHeU2DW-AlFwMiwrjJ-126" edge="1">
          <mxGeometry width="50" height="50" relative="1" as="geometry">
            <mxPoint x="-723" y="-500" as="sourcePoint" />
            <mxPoint x="-715" y="-450" as="targetPoint" />
          </mxGeometry>
        </mxCell>
        <mxCell id="UCymDucayZrGFGS8X2yc-31" value="Initial sessions" style="ellipse;whiteSpace=wrap;html=1;align=center;" parent="ZhwHeU2DW-AlFwMiwrjJ-1" vertex="1">
          <mxGeometry x="307.25" y="-621.5" width="100" height="50" as="geometry" />
        </mxCell>
        <mxCell id="UCymDucayZrGFGS8X2yc-33" value="" style="endArrow=none;html=1;rounded=0;" parent="ZhwHeU2DW-AlFwMiwrjJ-1" source="ZhwHeU2DW-AlFwMiwrjJ-4" target="UCymDucayZrGFGS8X2yc-31" edge="1">
          <mxGeometry width="50" height="50" relative="1" as="geometry">
            <mxPoint x="393" y="-510" as="sourcePoint" />
            <mxPoint x="428" y="-528" as="targetPoint" />
          </mxGeometry>
        </mxCell>
        <mxCell id="XAuuQmB97d2ZOVM2AcoV-0" value="SSN" style="ellipse;whiteSpace=wrap;html=1;" parent="ZhwHeU2DW-AlFwMiwrjJ-1" vertex="1">
          <mxGeometry x="460" y="-240" width="85" height="50" as="geometry" />
        </mxCell>
        <mxCell id="XAuuQmB97d2ZOVM2AcoV-1" value="" style="endArrow=none;html=1;rounded=0;" parent="ZhwHeU2DW-AlFwMiwrjJ-1" source="ZhwHeU2DW-AlFwMiwrjJ-3" target="XAuuQmB97d2ZOVM2AcoV-0" edge="1">
          <mxGeometry width="50" height="50" relative="1" as="geometry">
            <mxPoint x="397" y="-145" as="sourcePoint" />
            <mxPoint x="488" y="-145" as="targetPoint" />
          </mxGeometry>
        </mxCell>
        <mxCell id="dThWcByWi89jBJUVBqZU-0" value="" style="endArrow=none;html=1;rounded=0;" parent="ZhwHeU2DW-AlFwMiwrjJ-1" source="ZhwHeU2DW-AlFwMiwrjJ-73" target="ZhwHeU2DW-AlFwMiwrjJ-85" edge="1">
          <mxGeometry width="50" height="50" relative="1" as="geometry">
            <mxPoint x="370" y="-175" as="sourcePoint" />
            <mxPoint x="556" y="-342" as="targetPoint" />
          </mxGeometry>
        </mxCell>
        <mxCell id="dThWcByWi89jBJUVBqZU-1" value="N" style="edgeLabel;html=1;align=center;verticalAlign=middle;resizable=0;points=[];" parent="dThWcByWi89jBJUVBqZU-0" connectable="0" vertex="1">
          <mxGeometry x="0.2658" y="-3" relative="1" as="geometry">
            <mxPoint x="251" y="11" as="offset" />
          </mxGeometry>
        </mxCell>
        <mxCell id="6zP32eqvVq9QwOkhxsun-0" value="1" style="endArrow=none;html=1;rounded=0;" parent="ZhwHeU2DW-AlFwMiwrjJ-1" source="ZhwHeU2DW-AlFwMiwrjJ-31" target="UCymDucayZrGFGS8X2yc-8" edge="1">
          <mxGeometry x="-0.9033" y="13" width="50" height="50" relative="1" as="geometry">
            <mxPoint x="101" y="-705" as="sourcePoint" />
            <mxPoint x="219" y="-850" as="targetPoint" />
            <mxPoint as="offset" />
          </mxGeometry>
        </mxCell>
        <mxCell id="6zP32eqvVq9QwOkhxsun-1" value="1" style="endArrow=none;html=1;rounded=0;" parent="ZhwHeU2DW-AlFwMiwrjJ-1" source="_Ey7u8BmT_JralRfA2Q6-3" target="ZhwHeU2DW-AlFwMiwrjJ-73" edge="1">
          <mxGeometry x="-0.9488" y="24" width="50" height="50" relative="1" as="geometry">
            <mxPoint x="53" y="-671" as="sourcePoint" />
            <mxPoint x="-335" y="-494" as="targetPoint" />
            <mxPoint as="offset" />
          </mxGeometry>
        </mxCell>
      </root>
    </mxGraphModel>
  </diagram>
</mxfile>
